<svg xmlns="http://www.w3.org/2000/svg" viewBox="0 0 1600 900"><circle cx="948" cy="382" r="1.2" fill="#D7F6FF" opacity="0.25"/><circle cx="1385" cy="6" r="1.2" fill="#D7F6FF" opacity="0.45"/><circle cx="1238" cy="82" r="1.2" fill="#D7F6FF" opacity="0.48"/><circle cx="1262" cy="41" r="1.6" fill="#D7F6FF" opacity="0.27"/><circle cx="925" cy="432" r="0.9" fill="#D7F6FF" opacity="0.27"/><circle cx="105" cy="113" r="0.9" fill="#D7F6FF" opacity="0.45"/><circle cx="1209" cy="64" r="1.6" fill="#D7F6FF" opacity="0.61"/><circle cx="208" cy="298" r="0.9" fill="#D7F6FF" opacity="0.54"/><circle cx="1486" cy="431" r="0.7" fill="#D7F6FF" opacity="0.60"/><circle cx="429" cy="406" r="1.2" fill="#D7F6FF" opacity="0.36"/><circle cx="88" cy="204" r="0.7" fill="#D7F6FF" opacity="0.65"/><circle cx="112" cy="387" r="1.6" fill="#D7F6FF" opacity="0.26"/><circle cx="484" cy="434" r="0.7" fill="#D7F6FF" opacity="0.70"/><circle cx="7" cy="124" r="0.9" fill="#D7F6FF" opacity="0.66"/><circle cx="415" cy="338" r="0.7" fill="#D7F6FF" opacity="0.66"/><circle cx="272" cy="17" r="0.7" fill="#D7F6FF" opacity="0.49"/><circle cx="1100" cy="202" r="1.6" fill="#D7F6FF" opacity="0.22"/><circle cx="393" cy="95" r="0.9" fill="#D7F6FF" opacity="0.27"/><circle cx="1247" cy="42" r="0.7" fill="#D7F6FF" opacity="0.33"/><circle cx="1399" cy="152" r="1.2" fill="#D7F6FF" opacity="0.58"/><circle cx="1178" cy="35" r="0.7" fill="#D7F6FF" opacity="0.65"/><circle cx="824" cy="242" r="0.9" fill="#D7F6FF" opacity="0.51"/><circle cx="88" cy="374" r="0.7" fill="#D7F6FF" opacity="0.65"/><circle cx="225" cy="374" r="1.6" fill="#D7F6FF" opacity="0.29"/><circle cx="407" cy="18" r="1.6" fill="#D7F6FF" opacity="0.61"/><circle cx="673" cy="0" r="1.6" fill="#D7F6FF" opacity="0.24"/><circle cx="454" cy="454" r="1.2" fill="#D7F6FF" opacity="0.36"/><circle cx="181" cy="314" r="1.2" fill="#D7F6FF" opacity="0.24"/><circle cx="112" cy="26" r="1.6" fill="#D7F6FF" opacity="0.60"/><circle cx="877" cy="509" r="1.2" fill="#D7F6FF" opacity="0.56"/><circle cx="508" cy="67" r="1.6" fill="#D7F6FF" opacity="0.53"/><circle cx="196" cy="410" r="1.2" fill="#D7F6FF" opacity="0.70"/><circle cx="1147" cy="378" r="0.9" fill="#D7F6FF" opacity="0.54"/><circle cx="350" cy="265" r="0.7" fill="#D7F6FF" opacity="0.21"/><circle cx="353" cy="269" r="0.9" fill="#D7F6FF" opacity="0.71"/><circle cx="1242" cy="151" r="0.7" fill="#D7F6FF" opacity="0.21"/><circle cx="922" cy="213" r="1.6" fill="#D7F6FF" opacity="0.34"/><circle cx="30" cy="363" r="1.2" fill="#D7F6FF" opacity="0.26"/><circle cx="1150" cy="284" r="0.9" fill="#D7F6FF" opacity="0.70"/><circle cx="1530" cy="303" r="0.7" fill="#D7F6FF" opacity="0.22"/><circle cx="924" cy="145" r="1.6" fill="#D7F6FF" opacity="0.50"/><circle cx="346" cy="280" r="1.6" fill="#D7F6FF" opacity="0.37"/><circle cx="99" cy="283" r="0.9" fill="#D7F6FF" opacity="0.27"/><circle cx="1289" cy="86" r="0.9" fill="#D7F6FF" opacity="0.60"/><circle cx="455" cy="13" r="0.9" fill="#D7F6FF" opacity="0.27"/><circle cx="935" cy="397" r="0.7" fill="#D7F6FF" opacity="0.27"/><circle cx="987" cy="268" r="0.7" fill="#D7F6FF" opacity="0.69"/><circle cx="58" cy="446" r="1.2" fill="#D7F6FF" opacity="0.46"/><circle cx="1100" cy="67" r="1.2" fill="#D7F6FF" opacity="0.21"/><circle cx="459" cy="140" r="0.7" fill="#D7F6FF" opacity="0.23"/><circle cx="1006" cy="464" r="0.7" fill="#D7F6FF" opacity="0.44"/><circle cx="1304" cy="54" r="0.7" fill="#D7F6FF" opacity="0.38"/><circle cx="939" cy="236" r="1.2" fill="#D7F6FF" opacity="0.62"/><circle cx="1494" cy="507" r="0.9" fill="#D7F6FF" opacity="0.20"/><circle cx="1222" cy="86" r="0.7" fill="#D7F6FF" opacity="0.55"/><circle cx="832" cy="70" r="0.7" fill="#D7F6FF" opacity="0.28"/><circle cx="1245" cy="185" r="0.7" fill="#D7F6FF" opacity="0.22"/><circle cx="726" cy="481" r="1.6" fill="#D7F6FF" opacity="0.19"/><circle cx="1588" cy="77" r="1.2" fill="#D7F6FF" opacity="0.23"/><circle cx="658" cy="8" r="1.6" fill="#D7F6FF" opacity="0.70"/><circle cx="1208" cy="152" r="1.6" fill="#D7F6FF" opacity="0.71"/><circle cx="282" cy="108" r="1.2" fill="#D7F6FF" opacity="0.54"/><circle cx="924" cy="132" r="0.9" fill="#D7F6FF" opacity="0.70"/><circle cx="222" cy="113" r="0.7" fill="#D7F6FF" opacity="0.24"/><circle cx="1321" cy="84" r="1.2" fill="#D7F6FF" opacity="0.24"/><circle cx="48" cy="478" r="0.9" fill="#D7F6FF" opacity="0.38"/><circle cx="1299" cy="83" r="0.9" fill="#D7F6FF" opacity="0.18"/><circle cx="1563" cy="202" r="0.7" fill="#D7F6FF" opacity="0.42"/><circle cx="1250" cy="22" r="0.7" fill="#D7F6FF" opacity="0.46"/><circle cx="854" cy="59" r="1.2" fill="#D7F6FF" opacity="0.44"/><circle cx="645" cy="225" r="0.7" fill="#D7F6FF" opacity="0.55"/><circle cx="270" cy="307" r="0.7" fill="#D7F6FF" opacity="0.61"/><circle cx="723" cy="412" r="0.7" fill="#D7F6FF" opacity="0.65"/><circle cx="619" cy="96" r="0.7" fill="#D7F6FF" opacity="0.35"/><circle cx="506" cy="426" r="1.2" fill="#D7F6FF" opacity="0.45"/><circle cx="710" cy="408" r="1.6" fill="#D7F6FF" opacity="0.29"/><circle cx="566" cy="308" r="1.6" fill="#D7F6FF" opacity="0.43"/><circle cx="1164" cy="466" r="1.6" fill="#D7F6FF" opacity="0.39"/><circle cx="674" cy="411" r="0.7" fill="#D7F6FF" opacity="0.36"/><circle cx="349" cy="325" r="0.7" fill="#D7F6FF" opacity="0.28"/><circle cx="1457" cy="373" r="0.9" fill="#D7F6FF" opacity="0.69"/><circle cx="175" cy="345" r="1.6" fill="#D7F6FF" opacity="0.70"/><circle cx="1227" cy="394" r="0.9" fill="#D7F6FF" opacity="0.56"/><circle cx="1579" cy="343" r="0.7" fill="#D7F6FF" opacity="0.19"/><circle cx="1131" cy="431" r="1.6" fill="#D7F6FF" opacity="0.30"/><circle cx="1489" cy="331" r="0.7" fill="#D7F6FF" opacity="0.43"/><circle cx="6" cy="291" r="0.9" fill="#D7F6FF" opacity="0.22"/><circle cx="22" cy="322" r="0.7" fill="#D7F6FF" opacity="0.23"/><circle cx="672" cy="167" r="0.7" fill="#D7F6FF" opacity="0.46"/><circle cx="826" cy="404" r="1.6" fill="#D7F6FF" opacity="0.66"/><circle cx="1036" cy="138" r="1.2" fill="#D7F6FF" opacity="0.37"/><circle cx="552" cy="206" r="1.2" fill="#D7F6FF" opacity="0.67"/><circle cx="1161" cy="186" r="0.9" fill="#D7F6FF" opacity="0.49"/><circle cx="19" cy="313" r="0.7" fill="#D7F6FF" opacity="0.33"/><circle cx="1070" cy="437" r="0.7" fill="#D7F6FF" opacity="0.33"/><circle cx="294" cy="462" r="1.6" fill="#D7F6FF" opacity="0.55"/><circle cx="475" cy="183" r="1.2" fill="#D7F6FF" opacity="0.26"/><circle cx="1389" cy="355" r="0.7" fill="#D7F6FF" opacity="0.47"/><circle cx="705" cy="26" r="0.9" fill="#D7F6FF" opacity="0.47"/><circle cx="1370" cy="98" r="1.6" fill="#D7F6FF" opacity="0.25"/><circle cx="431" cy="137" r="1.6" fill="#D7F6FF" opacity="0.30"/><circle cx="415" cy="433" r="0.7" fill="#D7F6FF" opacity="0.64"/><circle cx="101" cy="363" r="1.6" fill="#D7F6FF" opacity="0.38"/><circle cx="762" cy="408" r="1.6" fill="#D7F6FF" opacity="0.42"/><circle cx="1488" cy="195" r="0.7" fill="#D7F6FF" opacity="0.68"/><circle cx="1203" cy="86" r="1.2" fill="#D7F6FF" opacity="0.32"/><circle cx="506" cy="480" r="0.9" fill="#D7F6FF" opacity="0.59"/><circle cx="24" cy="343" r="0.9" fill="#D7F6FF" opacity="0.71"/><circle cx="354" cy="28" r="0.7" fill="#D7F6FF" opacity="0.57"/><circle cx="1201" cy="205" r="1.2" fill="#D7F6FF" opacity="0.33"/><circle cx="265" cy="338" r="1.2" fill="#D7F6FF" opacity="0.39"/><circle cx="156" cy="415" r="0.9" fill="#D7F6FF" opacity="0.43"/><circle cx="1422" cy="42" r="1.2" fill="#D7F6FF" opacity="0.27"/><circle cx="294" cy="204" r="1.6" fill="#D7F6FF" opacity="0.64"/><circle cx="1027" cy="155" r="1.6" fill="#D7F6FF" opacity="0.20"/><circle cx="812" cy="143" r="1.2" fill="#D7F6FF" opacity="0.40"/><circle cx="1532" cy="185" r="0.7" fill="#D7F6FF" opacity="0.46"/><circle cx="1020" cy="267" r="1.2" fill="#D7F6FF" opacity="0.38"/><circle cx="1581" cy="355" r="0.7" fill="#D7F6FF" opacity="0.72"/><circle cx="1512" cy="60" r="1.6" fill="#D7F6FF" opacity="0.35"/><circle cx="211" cy="211" r="0.7" fill="#D7F6FF" opacity="0.29"/><circle cx="1475" cy="126" r="1.2" fill="#D7F6FF" opacity="0.35"/><circle cx="461" cy="11" r="0.9" fill="#D7F6FF" opacity="0.54"/><circle cx="849" cy="278" r="1.2" fill="#D7F6FF" opacity="0.69"/><circle cx="713" cy="330" r="0.9" fill="#D7F6FF" opacity="0.48"/><circle cx="59" cy="136" r="0.9" fill="#D7F6FF" opacity="0.23"/><circle cx="431" cy="19" r="1.2" fill="#D7F6FF" opacity="0.63"/><circle cx="1453" cy="449" r="1.2" fill="#D7F6FF" opacity="0.37"/><circle cx="1582" cy="77" r="0.7" fill="#D7F6FF" opacity="0.56"/><circle cx="1451" cy="436" r="0.9" fill="#D7F6FF" opacity="0.21"/><circle cx="1172" cy="159" r="1.6" fill="#D7F6FF" opacity="0.38"/><circle cx="1356" cy="196" r="1.2" fill="#D7F6FF" opacity="0.57"/><circle cx="1056" cy="418" r="0.7" fill="#D7F6FF" opacity="0.27"/><circle cx="1117" cy="320" r="1.2" fill="#D7F6FF" opacity="0.43"/><circle cx="589" cy="446" r="1.6" fill="#D7F6FF" opacity="0.58"/><circle cx="212" cy="58" r="1.2" fill="#D7F6FF" opacity="0.62"/><circle cx="1393" cy="228" r="1.6" fill="#D7F6FF" opacity="0.32"/><circle cx="925" cy="383" r="0.7" fill="#D7F6FF" opacity="0.72"/><circle cx="835" cy="520" r="0.9" fill="#D7F6FF" opacity="0.21"/><circle cx="242" cy="330" r="1.6" fill="#D7F6FF" opacity="0.45"/><circle cx="632" cy="445" r="0.7" fill="#D7F6FF" opacity="0.39"/><circle cx="399" cy="482" r="0.9" fill="#D7F6FF" opacity="0.51"/><circle cx="495" cy="299" r="0.7" fill="#D7F6FF" opacity="0.46"/><circle cx="1214" cy="5" r="0.9" fill="#D7F6FF" opacity="0.42"/><circle cx="209" cy="389" r="1.2" fill="#D7F6FF" opacity="0.55"/><circle cx="381" cy="75" r="1.2" fill="#D7F6FF" opacity="0.26"/><circle cx="1525" cy="431" r="0.9" fill="#D7F6FF" opacity="0.29"/><circle cx="968" cy="291" r="1.6" fill="#D7F6FF" opacity="0.62"/><circle cx="1035" cy="321" r="1.6" fill="#D7F6FF" opacity="0.21"/><circle cx="1088" cy="488" r="0.7" fill="#D7F6FF" opacity="0.22"/><circle cx="1544" cy="345" r="0.7" fill="#D7F6FF" opacity="0.61"/><circle cx="333" cy="153" r="1.6" fill="#D7F6FF" opacity="0.56"/><circle cx="1097" cy="508" r="0.7" fill="#D7F6FF" opacity="0.49"/><circle cx="25" cy="291" r="1.6" fill="#D7F6FF" opacity="0.56"/><circle cx="163" cy="271" r="0.9" fill="#D7F6FF" opacity="0.33"/><circle cx="675" cy="452" r="1.2" fill="#D7F6FF" opacity="0.36"/><circle cx="359" cy="165" r="1.2" fill="#D7F6FF" opacity="0.56"/><circle cx="652" cy="338" r="1.6" fill="#D7F6FF" opacity="0.22"/><circle cx="666" cy="290" r="0.7" fill="#D7F6FF" opacity="0.70"/><circle cx="523" cy="307" r="0.7" fill="#D7F6FF" opacity="0.51"/></svg>