<svg xmlns="http://www.w3.org/2000/svg" viewBox="16 88.7 199.4 29.5">
<!-- SVG created with Arrow, by QuiverAI (https://quiver.ai) -->
  <style type="text/css">.cls-0 {fill:#FDFDFD;}
.cls-1 {fill:#0A1833;}
.cls-2 {fill:#C1C1C1;}
.cls-3 {fill:#CC2524;}
.cls-4 {fill:none;stroke:#999B9D;stroke-width:0.463;}
.cls-5 {fill:#4B4B4D;}
.cls-6 {fill:#0C1A36;}
.cls-7 {fill:#414141;}</style>
  <path class="cls-1" d="m26.5 95.4c3.8-0.8 7.3-1.8 12.1-4.4 4.1 1.9 7.7 3.2 12 4.2l0.1 0.2-0.1 2.5c-0.3 1.2-1.3 3.1-2.2 4.1l-0.4-0.1 0.5-5.1c-3.2-0.9-6.7-1.8-10-3.5-3.2 1.6-6.2 2.5-10 3.4 0 3.6 1.1 7.5 2.6 10.6l-1.8 0.4c-1.4-2.3-3-7.9-2.8-12.3z"/>
  <path class="cls-1" d="m37.3 96.7c1.6-0.4 3.3 1.4 1.9 3.1l-0.3 0.2 0.6 3.2h-3l0.6-3.2c-1.3-0.7-1.1-3 0.2-3.3z"/>
  <path class="cls-1" d="m21.6 112.5c3.4-3.1 8.9-4.6 15.6-4.7 2-1.3 8.3-4.5 13.4-5.6 5.7-1.7 12.8 0 17.4 1.4 3.3 1.1 6.9 2.9 8.6 3.2 2.7 0.6 4.7 1.1 10.1 1.1l-1.9 1.1c-2.4 0-7.2-0.9-12.4-1s-12.1 0.6-24.3 0.9c-7.3 0-18.1-1.8-26.5 3.6zm17.7-4.8c9.9 0.8 18.8 0 27.6-0.8l6.8-0.2c-4.8-1.7-9.9-4.2-17.9-4.2-4.9 0-10.1 1.6-16.5 5.2z"/>
  <path class="cls-1" d="m41.7 106.9c1.4-0.5 3-1.4 5.2-1.9l8.7 2c-2.5 0.1-9.2 0.3-13.9-0.1z"/>
  <path class="cls-1" d="m25.9 114.5c1.2-5.1 8.1-6 10.8-0.9-2.5-2.8-8.5-3.8-10.8 0.9z"/>
  <path class="cls-1" d="m67.9 113.5c2-4.6 8.6-5.3 11.4 0.5-2.6-3.7-8.6-4.5-11.4-0.5z"/>
  <path class="cls-1" d="m17.1 116.6c9.8-1.2 21.3-2.7 40.8-2.3l16.7 1.3c-22.9-0.4-40.6-0.2-57.5 1z"/>
  <path class="cls-2" d="m47.5 93.5 11.8-3.4 14.8 4.9-0.7 0.4 12.6 3.7-0.4 7.5-0.5-6.7-26-8-11.6 1.6z"/>
  <polygon class="cls-2" points="58.9 92.2 59.4 92.2 59.3 100.8"/>
  <polygon class="cls-2" points="68.5 95.4 68.9 95.4 68.7 102.9"/>
  <polygon class="cls-2" points="77.2 98.3 77.5 98.5 77.4 105.7"/>
  <path class="cls-2" d="m59.1 114.3c9.6 0.1 17.6 0.5 30.8 2.4l-15.8-0.8-15-1.2v-0.4z"/>
  <path class="cls-3" d="m79.6 109.3 5.9-0.2 0.7 1.3c0.3 1.1-0.3 1.5-0.7 0.9-1.7-1.2-3.1-1.3-5.9-2z"/>
  <path class="cls-6" d="m98.3 96h3l-2.1 7.9c-0.2 0.6 0 0.9 0.8 0.9h8.1l-0.5 2.2h-10c-1.5 0-2.4-0.9-2-2.3l2.2-8.6h0.5v-0.1z"/>
  <path class="cls-6" d="m114.6 96h9.5c1.8 0 2.7 1 2.3 2.5l-1.6 6.3c-0.3 1.2-1.6 2.1-2.9 2.1h-9.8c-1.5 0-2.7-0.8-2.2-2.5l1.6-6.1c0.4-1.5 1.6-2.3 3.1-2.3zm0 3.1-1.2 4.6c-0.1 0.6 0.1 1 0.9 1h6.7c0.7 0 1.1-0.2 1.3-0.9l1.2-4.6c0.2-0.7-0.1-1-0.9-1h-6.9c-0.4 0-0.9 0.3-1.1 0.9z"/>
  <path class="cls-6" d="m132 96h11.4l-0.6 2.2h-9.7c-0.5 0-0.9 0.3-1.1 0.7l-1.4 4.8c-0.1 0.6 0 1 0.7 1h10l-0.6 2.2h-11.6c-1.3 0-2.6-0.7-2.2-2.2l1.7-6.3c0.5-1.9 2.1-2.4 3.4-2.4z"/>
  <path class="cls-6" d="m145.2 96h3.1l-1.4 5 8.3-5h4.6l-8.4 5.2 6.1 5.7h-4.1l-4.9-4.3-1.8 1-0.9 3.3h-3l2.8-10.9h-0.4z"/>
  <path class="cls-7" d="m169.9 95.9h11.4l-0.6 2.3h-9.7c-0.5 0-1.1 0.2-1.3 0.8l-1.3 4.8c-0.1 0.6 0.1 0.9 0.6 0.9h9.7l-0.5 2.2h-10.9c-1.5 0-2.8-0.5-2.3-2.5l1.6-6c0.5-1.7 1.6-2.5 3.3-2.5z"/>
  <path class="cls-7" d="m189.7 96h2.3l3.9 11h-3.3l-0.8-2.1h-5.8l1.8-2.2h3.4l-1.2-3.9-6.6 8.2h-3.7l9.7-11h0.3z"/>
  <path class="cls-7" d="m201.2 98.4-2.1 8.6h-2.8l2.8-11h12.3c1.6 0 2.7 0.7 2.3 2.5l-0.7 2.5c-0.4 1.3-1.5 2-3.1 2h-1.5l3.8 3.9h-3.8l-3.4-3.7-1-0.2h-1.5l0.6-2.3h6c0.6 0 1-0.2 1.2-0.8l0.3-1.1c0.1-0.5-0.2-0.6-0.7-0.6l-8.7 0.2z"/>
  <path class="cls-5" d="m115.2 111.6h0.8c0.8 0 1.3 0.5 1.1 1.3s-0.7 1.1-1.5 1.1h-0.8l0.4-2.4zm0.5 2c0.5 0 0.8-0.3 0.9-0.8s-0.1-0.8-0.6-0.8h-0.3l-0.3 1.6h0.3z"/>
  <path class="cls-5" d="m119.5 111.6h0.9c0.6 0 1 0.3 0.9 0.8-0.1 0.3-0.3 0.5-0.6 0.6l0.4 1h-0.5l-0.3-0.9h-0.4l-0.2 0.9h-0.5l0.3-2.4zm0.6 1.1c0.3 0 0.5-0.1 0.6-0.4 0-0.3-0.1-0.4-0.4-0.4h-0.4l-0.1 0.8h0.3z"/>
  <path class="cls-5" d="m123.6 111.6h0.5l-0.4 2.4h-0.5l0.4-2.4z"/>
  <path class="cls-5" d="m126.2 111.6h0.5l0.3 1.9 1-1.9h0.5l-1.3 2.4h-0.6l-0.4-2.4z"/>
  <path class="cls-5" d="m130.6 111.6h1.6l-0.1 0.4h-1.1l-0.1 0.6h0.9l-0.1 0.4h-0.9l-0.1 0.6h1l-0.1 0.4h-1.5l0.5-2.4z"/>
  <path class="cls-5" d="m137 111.6h0.5l0.2 1.8 0.8-1.8h0.5l0.3 1.9 0.8-1.9h0.5l-1 2.4h-0.6l-0.2-1.7-0.8 1.7h-0.6l-0.4-2.4z"/>
  <path class="cls-5" d="m142.8 111.6h0.5l-0.4 2.4h-0.5l0.4-2.4z"/>
  <path class="cls-5" d="m146 112h-0.7l0.1-0.4h1.8l-0.1 0.4h-0.6l-0.4 2h-0.5l0.4-2z"/>
  <path class="cls-5" d="m149.4 111.6h0.5l-0.2 1h1l0.2-1h0.5l-0.4 2.4h-0.5l0.2-1h-1l-0.2 1h-0.5l0.4-2.4z"/>
  <path class="cls-5" d="m156.3 112.8c0.1-0.7 0.7-1.3 1.4-1.3 0.6 0 1 0.3 1 0.8h-0.5c0-0.2-0.2-0.4-0.5-0.4-0.4 0-0.8 0.4-0.9 0.9s0.2 0.8 0.6 0.8c0.3 0 0.5-0.1 0.7-0.3h0.5c-0.2 0.5-0.7 0.7-1.2 0.7-0.8 0-1.2-0.4-1.1-1.2z"/>
  <path class="cls-5" d="m160.8 112.7c0.1-0.7 0.7-1.2 1.4-1.2s1.3 0.5 1.1 1.2c-0.1 0.8-0.7 1.3-1.4 1.3s-1.3-0.4-1.1-1.3zm2 0c0.1-0.5-0.1-0.8-0.6-0.8s-0.8 0.4-0.9 0.9c0 0.5 0.2 0.8 0.6 0.8 0.5 0 0.8-0.3 0.9-0.9z"/>
  <path class="cls-5" d="m165.8 111.6h0.6l0.7 1.7 0.3-1.7h0.5l-0.4 2.4h-0.6l-0.7-1.7-0.3 1.7h-0.5l0.4-2.4z"/>
  <path class="cls-5" d="m170.2 111.6h1.5l-0.1 0.4h-1l-0.1 0.6h0.8l-0.1 0.4h-0.8l-0.2 1h-0.5l0.5-2.4z"/>
  <path class="cls-5" d="m173.9 111.6h0.5l-0.4 2.4h-0.5l0.4-2.4z"/>
  <path class="cls-5" d="m176.7 111.6h0.8c0.9 0 1.3 0.5 1.1 1.2s-0.7 1.2-1.5 1.2h-0.8l0.4-2.4zm0.5 2c0.5 0 0.8-0.3 0.9-0.8s-0.1-0.8-0.6-0.8h-0.3l-0.3 1.6h0.3z"/>
  <path class="cls-5" d="m181 111.6h1.5l-0.1 0.4h-1l-0.1 0.6h0.9l-0.1 0.4h-0.9l-0.1 0.6h1l-0.1 0.4h-1.4l0.4-2.4z"/>
  <path class="cls-5" d="m184.8 111.6h0.6l0.7 1.7 0.3-1.7h0.5l-0.4 2.4h-0.6l-0.7-1.7-0.3 1.7h-0.5l0.4-2.4z"/>
  <path class="cls-5" d="m188.8 112.8c0.1-0.7 0.7-1.3 1.4-1.3 0.5 0 1 0.3 1 0.8h-0.5c0-0.3-0.2-0.4-0.5-0.4-0.4 0-0.8 0.3-0.9 0.9-0.1 0.5 0.2 0.8 0.6 0.8 0.3 0 0.5-0.1 0.7-0.3h0.5c-0.2 0.5-0.7 0.7-1.2 0.7-0.8 0-1.2-0.4-1.1-1.2z"/>
  <path class="cls-5" d="m193.6 111.6h1.5l-0.1 0.4h-1l-0.1 0.6h0.9l-0.1 0.4h-0.9l-0.1 0.6h1l-0.1 0.4h-1.4l0.4-2.4z"/>
  <line class="cls-4" x1="100.2" x2="110.6" y1="113" y2="113"/>
  <line class="cls-4" x1="199.4" x2="210.6" y1="112.9" y2="112.9"/>
</svg>